<?xml version="1.0" encoding="UTF-8" standalone="no"?>
<!DOCTYPE svg PUBLIC "-//W3C//DTD SVG 1.1//EN" "http://www.w3.org/Graphics/SVG/1.1/DTD/svg11.dtd">
<svg xmlns="http://www.w3.org/2000/svg" version="1.1" viewBox="0.00 0.00 24.00 24.00">
<g stroke-width="2.00" fill="none" stroke-linecap="butt">
<path stroke="#808aa1" vector-effect="non-scaling-stroke" d="
  M 4.72 14.02
  C 3.43 8.06 8.99 2.90 14.68 5.10
  A 1.70 1.70 0.0 0 0 16.18 4.98
  L 17.44 4.22
  Q 18.25 3.73 17.43 3.25
  C 13.44 0.92 8.82 1.37 5.30 4.40
  Q -0.43 9.34 3.07 17.54
  A 0.64 0.63 50.5 0 0 4.18 17.65
  Q 8.56 11.20 16.48 12.07
  Q 17.65 12.20 17.25 11.09
  C 15.14 5.19 7.46 5.78 6.82 12.05
  C 6.71 13.07 6.10 13.79 5.30 14.27
  Q 4.84 14.55 4.72 14.02"
/>
<path stroke="#81d6e8" vector-effect="non-scaling-stroke" d="
  M 6.98 21.16
  C 16.78 25.91 25.24 16.83 21.11 7.13
  Q 20.60 5.94 19.93 7.04
  L 19.62 7.55
  A 2.71 2.69 54.6 0 0 19.29 9.55
  C 20.69 15.69 16.37 21.20 9.67 19.33
  A 2.97 2.92 -49.8 0 0 7.59 19.52
  L 6.98 19.82
  Q 5.60 20.49 6.98 21.16"
/>
<path stroke="#81d6e8" vector-effect="non-scaling-stroke" d="
  M 16.20 13.26
  C 13.78 12.86 10.78 13.13 8.54 14.57
  A 0.96 0.96 0.0 0 0 8.56 16.19
  Q 13.56 19.28 16.72 14.46
  Q 17.38 13.46 16.20 13.26"
/>
</g>
<path fill="#fffffe" d="
  M 10.37 0.00
  L 13.72 0.00
  Q 22.10 2.01 24.00 10.38
  L 24.00 13.71
  Q 21.98 22.16 13.63 24.00
  L 10.26 24.00
  Q 2.05 22.10 0.00 13.86
  L 0.00 10.04
  Q 2.16 1.83 10.37 0.00
  Z
  M 4.72 14.02
  C 3.43 8.06 8.99 2.90 14.68 5.10
  A 1.70 1.70 0.0 0 0 16.18 4.98
  L 17.44 4.22
  Q 18.25 3.73 17.43 3.25
  C 13.44 0.92 8.82 1.37 5.30 4.40
  Q -0.43 9.34 3.07 17.54
  A 0.64 0.63 50.5 0 0 4.18 17.65
  Q 8.56 11.20 16.48 12.07
  Q 17.65 12.20 17.25 11.09
  C 15.14 5.19 7.46 5.78 6.82 12.05
  C 6.71 13.07 6.10 13.79 5.30 14.27
  Q 4.84 14.55 4.72 14.02
  Z
  M 6.98 21.16
  C 16.78 25.91 25.24 16.83 21.11 7.13
  Q 20.60 5.94 19.93 7.04
  L 19.62 7.55
  A 2.71 2.69 54.6 0 0 19.29 9.55
  C 20.69 15.69 16.37 21.20 9.67 19.33
  A 2.97 2.92 -49.8 0 0 7.59 19.52
  L 6.98 19.82
  Q 5.60 20.49 6.98 21.16
  Z
  M 16.20 13.26
  C 13.78 12.86 10.78 13.13 8.54 14.57
  A 0.96 0.96 0.0 0 0 8.56 16.19
  Q 13.56 19.28 16.72 14.46
  Q 17.38 13.46 16.20 13.26
  Z"
/>
<path fill="#001444" d="
  M 5.30 14.27
  C 6.10 13.79 6.71 13.07 6.82 12.05
  C 7.46 5.78 15.14 5.19 17.25 11.09
  Q 17.65 12.20 16.48 12.07
  Q 8.56 11.20 4.18 17.65
  A 0.64 0.63 50.5 0 1 3.07 17.54
  Q -0.43 9.34 5.30 4.40
  C 8.82 1.37 13.44 0.92 17.43 3.25
  Q 18.25 3.73 17.44 4.22
  L 16.18 4.98
  A 1.70 1.70 0.0 0 1 14.68 5.10
  C 8.99 2.90 3.43 8.06 4.72 14.02
  Q 4.84 14.55 5.30 14.27
  Z"
/>
<path fill="#02add1" d="
  M 6.98 21.16
  Q 5.60 20.49 6.98 19.82
  L 7.59 19.52
  A 2.97 2.92 -49.8 0 1 9.67 19.33
  C 16.37 21.20 20.69 15.69 19.29 9.55
  A 2.71 2.69 54.6 0 1 19.62 7.55
  L 19.93 7.04
  Q 20.60 5.94 21.11 7.13
  C 25.24 16.83 16.78 25.91 6.98 21.16
  Z"
/>
<path fill="#02add1" d="
  M 8.54 14.57
  C 10.78 13.13 13.78 12.86 16.20 13.26
  Q 17.38 13.46 16.72 14.46
  Q 13.56 19.28 8.56 16.19
  A 0.96 0.96 0.0 0 1 8.54 14.57
  Z"
/>
</svg>
